<svg width="153" height="27" viewBox="0 0 153 27" fill="none" xmlns="http://www.w3.org/2000/svg">
<path fill-rule="evenodd" clip-rule="evenodd" d="M16.8618 27H10.2061C8.83177 27 7.55066 26.2627 6.86351 25.0788L1.2635 15.4212C0.578835 14.2359 0.578835 12.7643 1.2635 11.5806L6.86351 1.92254C7.55066 0.737744 8.83042 0 10.2061 0H21.4029C22.7772 0 24.0577 0.737744 24.7455 1.92254L30.3439 11.5806C31.0302 12.7643 31.0302 14.2359 30.3439 15.4212L28.8959 17.7202C28.222 18.883 26.9409 19.6192 25.5666 19.6192H18.9014L22.5455 13.4957L19.175 7.68409H12.4333L9.0612 13.5L16.8618 27Z" fill="#FE5000"></path>
<path fill-rule="evenodd" clip-rule="evenodd" d="M150.98 8.26679H151.146C151.331 8.26679 151.496 8.19355 151.496 8.04686C151.496 7.90892 151.395 7.81727 151.174 7.81727C151.082 7.81727 151.017 7.82648 150.98 7.83546V8.26679ZM150.621 9.12028V7.61559C150.759 7.58796 150.953 7.56033 151.201 7.56033C151.487 7.56033 151.616 7.60638 151.727 7.67962C151.81 7.74387 151.874 7.86315 151.874 8.00985C151.874 8.17519 151.736 8.30369 151.561 8.35873V8.37692C151.708 8.42275 151.791 8.54226 151.837 8.75321C151.883 8.97359 151.911 9.06525 151.948 9.12028H151.57C151.524 9.06525 151.487 8.92754 151.45 8.75321C151.423 8.58809 151.331 8.51486 151.137 8.51486H150.971V9.12028H150.621ZM150.041 8.33114C150.041 9.00126 150.547 9.53345 151.22 9.53345C151.883 9.53345 152.372 9.00126 152.372 8.33114C152.372 7.67067 151.883 7.13848 151.211 7.13848C150.547 7.13848 150.041 7.67067 150.041 8.33114ZM152.75 8.33109C152.75 9.18453 152.077 9.84522 151.211 9.84522C150.345 9.84522 149.653 9.18453 149.653 8.33109C149.653 7.49607 150.345 6.82617 151.211 6.82617C152.077 6.82617 152.75 7.49607 152.75 8.33109ZM62.8547 12.7012C64.0233 12.7012 64.7663 12.3467 64.7663 11.1309C64.7663 9.93034 64.1315 9.59517 63.0151 9.59517H62.164V12.7012H62.8547ZM68.489 18.9356H65.2304L63.8002 15.7116C63.6186 15.2983 63.3571 15.0741 62.9472 15.0462H62.164V18.9443H59.1165V7.21365H63.439C66.2214 7.21365 67.9027 8.50088 67.9027 10.9363C67.9027 12.5223 67.226 13.648 66.1079 14.3168C66.4235 14.4767 66.7028 14.8099 66.8808 15.2304L68.489 18.9356ZM70.0102 18.9529H77.8406V16.3058H73.0577V14.2959H77.0607V11.6502H73.0577V9.86606H77.7167V7.22061H70.0102V18.9529ZM47.6514 7.22061V15.0723C47.6514 17.93 49.2276 19.1631 52.294 19.1631C55.0746 19.1631 56.9865 17.7162 56.9865 15.3365V7.22061H53.9408V14.9835C53.9408 16.0956 53.285 16.6408 52.3639 16.6408C51.3896 16.6408 50.6989 16.2346 50.6989 14.895V7.22061H47.6514ZM40.1262 12.7083V9.60213H40.9758C42.092 9.60213 42.7297 9.93753 42.7297 11.1358C42.7297 12.3538 41.9866 12.7083 40.817 12.7083H40.1262ZM40.1262 15.0532H41.029C43.8626 15.0532 45.8652 13.6756 45.8652 10.9433C45.8652 8.50942 44.1827 7.22061 41.4006 7.22061H37.0771V18.9529H40.1262V15.0532ZM113.928 13.5C115.805 13.5 117.116 12.8106 117.116 10.9222C117.116 8.59462 115.7 8.36682 113.698 8.36682H112.157V13.5H113.928ZM118.931 18.9478H117.441L115.944 15.7288C115.644 15.095 115.306 14.6242 114.579 14.6242L114.6 14.6136C114.462 14.6242 114.32 14.6293 114.176 14.6293H112.157V18.9513H110.756V7.21865H114.584C117.064 7.21865 118.554 8.41737 118.554 10.7104C118.554 12.4664 117.745 13.6198 116.445 14.1967C116.817 14.3809 116.987 14.6815 117.254 15.2703L118.931 18.9478ZM141.957 18.9513H148.669V17.7511H143.356V13.5712H147.821V12.3694H143.356V8.41737H148.547V7.21865H141.957V18.9513ZM139.56 12.7063H135.485V13.9048H138.161V17.3981C137.735 17.6984 136.689 18.0165 135.768 18.0165C133.2 18.0165 132.064 16.1629 132.064 12.9878C132.064 10.0222 133.395 8.20704 135.626 8.20704C136.884 8.20704 137.805 8.78887 138.585 9.70611L139.595 8.91243C138.391 7.37674 136.849 7.00697 135.645 7.00697C133.287 7.00697 130.631 8.54243 130.631 13.1107C130.631 17.2053 132.546 19.1631 135.645 19.1631C137.186 19.1631 138.585 18.7392 139.56 18.0862V12.7063ZM124.994 8.4731L126.997 14.2054H123.027L124.994 8.4731ZM121.432 18.9513L122.692 15.3363H127.332L128.626 18.9513H130.095L125.863 7.21865H124.197L120.051 18.9513H121.432ZM103.819 17.98C100.896 17.98 100.259 15.3864 100.259 13.0589C100.259 10.6598 101.217 8.20714 103.8 8.20714C106.495 8.20714 107.186 11.0804 107.186 13.1651C107.186 15.5621 106.389 17.98 103.819 17.98ZM103.678 19.1631C106.708 19.1631 108.622 17.1514 108.622 13.1107C108.622 8.61163 106.406 7.00697 103.856 7.00697C101.445 7.00697 98.8235 8.57725 98.8235 13.1107C98.8235 17.1343 100.648 19.1631 103.678 19.1631ZM89.5502 7.21865V8.41737H93.0588V18.9513H94.4597V8.41737H98.038V7.21865H89.5502ZM80.9758 16.9393C81.5242 17.3116 82.7826 17.9453 84.1828 17.9453C85.3689 17.9453 86.6634 17.5737 86.6634 15.7759C86.6634 14.3651 85.4222 13.9048 84.0055 13.5175C82.305 13.0588 80.639 12.4248 80.639 10.2536C80.639 8.29577 82.1618 7.00697 84.3761 7.00697C85.9715 7.00697 87.3713 7.74696 88.2028 8.57725L87.4232 9.51179C86.5046 8.71788 85.4754 8.20704 84.3599 8.20704C83.3682 8.20704 82.092 8.63072 82.092 10.1109C82.092 11.506 83.2967 11.9106 84.8203 12.3693C86.4504 12.8835 88.1164 13.5 88.1164 15.7235C88.1164 17.928 86.6266 19.1631 84.1478 19.1631C82.4469 19.1631 80.8712 18.4735 80.3913 18.0862L80.9758 16.9393Z" fill="#222222"></path>
</svg>